<svg xmlns="http://www.w3.org/2000/svg" xmlns:xlink="http://www.w3.org/1999/xlink" width="100" zoomAndPan="magnify" viewBox="0 0 375 374.999991" height="100" preserveAspectRatio="xMidYMid meet" version="1.0"><defs><g/><clipPath id="b0ae0b233c"><path d="M 112.5 92.90625 L 262.5 92.90625 L 262.5 180.65625 L 112.5 180.65625 Z M 112.5 92.90625 " clip-rule="nonzero"/></clipPath></defs><g clip-path="url(#b0ae0b233c)"><path fill="#2430cf" d="M 239.238281 146.34375 C 239.238281 143.125 241.871094 140.496094 245.085938 140.496094 C 247.914062 140.496094 250.289062 142.53125 250.820312 145.203125 L 250.820312 145.390625 C 250.820312 148.578125 253.429688 151.183594 256.617188 151.183594 C 259.800781 151.183594 262.410156 148.578125 262.410156 145.390625 L 262.410156 127.902344 C 262.410156 124.714844 259.800781 122.109375 256.617188 122.109375 C 253.429688 122.109375 250.820312 124.714844 250.820312 127.902344 L 250.820312 129.859375 C 250.285156 132.535156 247.910156 134.566406 245.085938 134.566406 C 241.871094 134.566406 239.238281 131.933594 239.238281 128.714844 L 239.238281 120.144531 C 239.238281 116.960938 236.628906 114.351562 233.441406 114.351562 C 230.257812 114.351562 227.648438 116.960938 227.648438 120.144531 L 227.648438 153.722656 C 227.648438 156.910156 230.257812 159.515625 233.441406 159.515625 C 236.628906 159.515625 239.238281 156.910156 239.238281 153.722656 Z M 164.535156 171.425781 C 167.691406 171.425781 170.277344 168.847656 170.277344 165.691406 L 170.277344 133.421875 C 170.277344 130.269531 172.859375 127.6875 176.015625 127.6875 C 178.902344 127.6875 181.308594 129.847656 181.699219 132.628906 L 181.699219 175.167969 C 181.699219 175.214844 181.699219 175.269531 181.699219 175.316406 C 181.699219 175.367188 181.703125 175.414062 181.707031 175.464844 C 181.710938 175.515625 181.710938 175.5625 181.714844 175.613281 C 181.71875 175.660156 181.722656 175.710938 181.726562 175.757812 C 181.730469 175.808594 181.738281 175.855469 181.742188 175.90625 C 181.75 175.953125 181.753906 176.003906 181.761719 176.046875 C 181.769531 176.097656 181.777344 176.144531 181.785156 176.191406 C 181.796875 176.242188 181.804688 176.285156 181.816406 176.335938 C 181.824219 176.382812 181.835938 176.425781 181.847656 176.476562 L 181.882812 176.613281 C 181.894531 176.660156 181.902344 176.703125 181.917969 176.75 C 181.929688 176.796875 181.945312 176.84375 181.957031 176.886719 C 181.972656 176.933594 181.988281 176.976562 182 177.019531 L 182.046875 177.15625 C 182.0625 177.199219 182.078125 177.246094 182.097656 177.289062 C 182.117188 177.332031 182.132812 177.375 182.152344 177.417969 C 182.171875 177.460938 182.191406 177.503906 182.210938 177.546875 C 182.230469 177.589844 182.25 177.632812 182.269531 177.671875 C 182.292969 177.714844 182.3125 177.753906 182.335938 177.796875 C 182.355469 177.839844 182.378906 177.882812 182.398438 177.921875 C 182.421875 177.960938 182.445312 178 182.46875 178.042969 C 182.492188 178.085938 182.515625 178.125 182.539062 178.164062 C 182.5625 178.207031 182.589844 178.246094 182.617188 178.28125 L 182.691406 178.398438 L 182.773438 178.515625 C 182.800781 178.550781 182.828125 178.589844 182.851562 178.625 L 182.941406 178.738281 C 182.96875 178.777344 182.996094 178.808594 183.027344 178.847656 C 183.058594 178.882812 183.089844 178.917969 183.117188 178.953125 L 183.210938 179.058594 C 183.242188 179.089844 183.273438 179.125 183.304688 179.160156 L 183.402344 179.261719 L 183.5 179.359375 C 183.535156 179.390625 183.570312 179.421875 183.605469 179.453125 C 183.640625 179.484375 183.671875 179.515625 183.707031 179.542969 C 183.742188 179.578125 183.78125 179.605469 183.8125 179.632812 C 183.847656 179.664062 183.886719 179.691406 183.921875 179.71875 C 183.960938 179.75 183.996094 179.777344 184.035156 179.804688 C 184.074219 179.835938 184.109375 179.859375 184.148438 179.890625 L 184.261719 179.96875 C 184.300781 179.996094 184.339844 180.019531 184.375 180.046875 L 184.492188 180.121094 C 184.535156 180.144531 184.574219 180.167969 184.613281 180.191406 C 184.65625 180.214844 184.695312 180.238281 184.738281 180.261719 L 184.859375 180.328125 L 184.988281 180.390625 L 185.113281 180.449219 L 185.242188 180.507812 C 185.285156 180.527344 185.328125 180.546875 185.371094 180.5625 C 185.414062 180.578125 185.460938 180.597656 185.503906 180.613281 L 185.636719 180.65625 C 185.679688 180.671875 185.726562 180.6875 185.773438 180.699219 C 185.820312 180.714844 185.863281 180.730469 185.910156 180.742188 L 186.046875 180.777344 C 186.09375 180.789062 186.140625 180.800781 186.1875 180.8125 C 186.230469 180.824219 186.28125 180.832031 186.328125 180.84375 C 186.371094 180.855469 186.421875 180.859375 186.46875 180.871094 C 186.515625 180.882812 186.5625 180.890625 186.609375 180.894531 C 186.660156 180.902344 186.707031 180.910156 186.753906 180.914062 C 186.804688 180.921875 186.851562 180.925781 186.902344 180.933594 C 186.949219 180.9375 187 180.941406 187.046875 180.945312 C 187.09375 180.945312 187.144531 180.949219 187.191406 180.953125 C 187.242188 180.957031 187.289062 180.957031 187.339844 180.957031 C 187.386719 180.960938 187.441406 180.960938 187.488281 180.960938 C 190.675781 180.960938 193.28125 178.355469 193.28125 175.167969 L 193.28125 159.984375 C 193.671875 157.199219 196.078125 155.042969 198.964844 155.042969 C 202.121094 155.042969 204.699219 157.621094 204.699219 160.777344 L 204.699219 165.691406 C 204.699219 165.738281 204.699219 165.789062 204.703125 165.835938 C 204.703125 165.886719 204.707031 165.933594 204.710938 165.984375 C 204.710938 166.03125 204.714844 166.082031 204.71875 166.128906 C 204.722656 166.179688 204.726562 166.226562 204.730469 166.273438 C 204.734375 166.320312 204.742188 166.367188 204.746094 166.417969 C 204.753906 166.464844 204.757812 166.511719 204.765625 166.558594 C 204.773438 166.609375 204.78125 166.65625 204.789062 166.699219 C 204.796875 166.746094 204.808594 166.796875 204.820312 166.839844 C 204.828125 166.886719 204.839844 166.933594 204.851562 166.980469 C 204.863281 167.027344 204.871094 167.074219 204.882812 167.121094 C 204.894531 167.164062 204.910156 167.210938 204.921875 167.257812 C 204.9375 167.304688 204.949219 167.347656 204.960938 167.390625 C 204.976562 167.4375 204.992188 167.480469 205.003906 167.527344 C 205.019531 167.570312 205.035156 167.617188 205.050781 167.660156 C 205.066406 167.703125 205.082031 167.746094 205.097656 167.789062 C 205.117188 167.832031 205.132812 167.875 205.152344 167.917969 C 205.171875 167.960938 205.191406 168.003906 205.210938 168.046875 C 205.230469 168.089844 205.25 168.132812 205.273438 168.175781 C 205.292969 168.21875 205.3125 168.257812 205.335938 168.296875 C 205.355469 168.339844 205.378906 168.382812 205.402344 168.421875 C 205.421875 168.460938 205.445312 168.5 205.46875 168.542969 L 205.542969 168.664062 C 205.5625 168.703125 205.589844 168.738281 205.617188 168.78125 C 205.640625 168.820312 205.667969 168.859375 205.691406 168.894531 C 205.71875 168.933594 205.746094 168.96875 205.769531 169.007812 L 205.933594 169.226562 C 205.960938 169.265625 205.992188 169.300781 206.019531 169.335938 C 206.050781 169.371094 206.082031 169.410156 206.109375 169.441406 C 206.140625 169.476562 206.167969 169.511719 206.199219 169.546875 C 206.230469 169.582031 206.265625 169.613281 206.296875 169.644531 L 206.390625 169.742188 L 206.492188 169.839844 C 206.523438 169.871094 206.554688 169.902344 206.589844 169.933594 L 206.695312 170.023438 C 206.730469 170.054688 206.765625 170.085938 206.800781 170.113281 L 206.90625 170.199219 C 206.945312 170.230469 206.976562 170.257812 207.015625 170.28125 L 207.128906 170.363281 L 207.242188 170.441406 C 207.28125 170.464844 207.320312 170.492188 207.355469 170.519531 L 207.472656 170.589844 L 207.59375 170.660156 C 207.632812 170.683594 207.671875 170.707031 207.710938 170.730469 C 207.753906 170.753906 207.792969 170.773438 207.835938 170.796875 C 207.875 170.816406 207.917969 170.839844 207.960938 170.859375 L 208.089844 170.917969 C 208.132812 170.941406 208.175781 170.957031 208.21875 170.972656 L 208.347656 171.027344 C 208.390625 171.046875 208.433594 171.0625 208.476562 171.078125 C 208.519531 171.09375 208.566406 171.109375 208.609375 171.125 C 208.652344 171.136719 208.699219 171.152344 208.746094 171.167969 L 208.878906 171.207031 C 208.925781 171.222656 208.972656 171.234375 209.015625 171.242188 C 209.0625 171.253906 209.109375 171.265625 209.15625 171.277344 C 209.199219 171.289062 209.246094 171.296875 209.296875 171.308594 C 209.339844 171.320312 209.386719 171.328125 209.4375 171.335938 C 209.480469 171.34375 209.53125 171.351562 209.578125 171.359375 C 209.621094 171.363281 209.671875 171.371094 209.71875 171.378906 C 209.769531 171.382812 209.816406 171.390625 209.863281 171.394531 C 209.914062 171.402344 209.960938 171.40625 210.007812 171.410156 C 210.054688 171.414062 210.105469 171.417969 210.152344 171.417969 C 210.203125 171.421875 210.25 171.425781 210.300781 171.425781 C 210.347656 171.425781 210.398438 171.425781 210.445312 171.425781 C 213.601562 171.425781 216.183594 168.847656 216.183594 165.691406 L 216.183594 136.039062 C 216.183594 132.851562 218.789062 130.246094 221.976562 130.246094 C 224.777344 130.246094 227.128906 132.257812 227.65625 134.90625 L 227.65625 119.710938 C 227.128906 122.359375 224.777344 124.371094 221.976562 124.371094 C 218.789062 124.371094 216.183594 121.765625 216.183594 118.578125 L 216.183594 108.175781 C 216.183594 105.023438 213.601562 102.441406 210.445312 102.441406 C 207.289062 102.441406 204.707031 105.023438 204.707031 108.175781 L 204.707031 141.394531 C 204.707031 144.550781 202.125 147.128906 198.96875 147.128906 C 196.085938 147.128906 193.679688 144.972656 193.289062 142.1875 L 193.289062 98.699219 C 193.289062 98.652344 193.289062 98.601562 193.285156 98.550781 C 193.28125 98.503906 193.28125 98.453125 193.28125 98.402344 C 193.277344 98.355469 193.273438 98.304688 193.269531 98.257812 C 193.269531 98.207031 193.261719 98.160156 193.257812 98.109375 C 193.25 98.0625 193.246094 98.011719 193.242188 97.964844 C 193.238281 97.914062 193.226562 97.867188 193.222656 97.820312 C 193.214844 97.769531 193.207031 97.726562 193.195312 97.675781 C 193.1875 97.628906 193.179688 97.582031 193.171875 97.535156 C 193.160156 97.488281 193.152344 97.4375 193.140625 97.394531 L 193.105469 97.253906 C 193.09375 97.210938 193.078125 97.164062 193.066406 97.117188 C 193.054688 97.070312 193.042969 97.027344 193.027344 96.980469 C 193.011719 96.933594 193 96.886719 192.984375 96.84375 L 192.9375 96.710938 C 192.921875 96.667969 192.90625 96.621094 192.890625 96.578125 C 192.871094 96.535156 192.855469 96.492188 192.835938 96.449219 C 192.816406 96.40625 192.796875 96.363281 192.777344 96.320312 C 192.757812 96.277344 192.738281 96.234375 192.71875 96.195312 C 192.695312 96.152344 192.675781 96.109375 192.652344 96.066406 C 192.632812 96.027344 192.609375 95.984375 192.589844 95.945312 C 192.566406 95.902344 192.542969 95.859375 192.519531 95.824219 C 192.496094 95.785156 192.472656 95.742188 192.449219 95.703125 C 192.421875 95.664062 192.398438 95.625 192.375 95.585938 L 192.296875 95.46875 L 192.214844 95.351562 C 192.1875 95.316406 192.160156 95.277344 192.132812 95.242188 L 192.046875 95.128906 C 192.015625 95.09375 191.988281 95.058594 191.957031 95.019531 C 191.929688 94.984375 191.898438 94.949219 191.867188 94.914062 L 191.777344 94.808594 C 191.746094 94.773438 191.714844 94.738281 191.683594 94.707031 L 191.585938 94.609375 L 191.484375 94.511719 C 191.449219 94.480469 191.414062 94.445312 191.382812 94.414062 C 191.347656 94.382812 191.316406 94.351562 191.28125 94.324219 C 191.246094 94.292969 191.210938 94.261719 191.175781 94.234375 C 191.140625 94.207031 191.101562 94.175781 191.066406 94.148438 C 191.027344 94.121094 190.992188 94.089844 190.957031 94.0625 C 190.917969 94.035156 190.882812 94.007812 190.84375 93.980469 L 190.730469 93.898438 C 190.691406 93.875 190.652344 93.847656 190.613281 93.820312 L 190.496094 93.746094 C 190.453125 93.722656 190.414062 93.699219 190.375 93.675781 C 190.332031 93.652344 190.292969 93.628906 190.25 93.605469 L 190.128906 93.539062 L 189.996094 93.480469 L 189.871094 93.421875 L 189.738281 93.363281 C 189.695312 93.34375 189.652344 93.324219 189.609375 93.308594 C 189.566406 93.292969 189.523438 93.273438 189.480469 93.257812 L 189.34375 93.214844 C 189.296875 93.199219 189.253906 93.183594 189.210938 93.167969 C 189.164062 93.152344 189.117188 93.140625 189.074219 93.128906 L 188.9375 93.089844 C 188.890625 93.078125 188.84375 93.066406 188.800781 93.054688 C 188.753906 93.042969 188.703125 93.03125 188.660156 93.023438 C 188.613281 93.015625 188.5625 93.003906 188.519531 92.996094 C 188.472656 92.988281 188.421875 92.980469 188.375 92.972656 C 188.328125 92.964844 188.277344 92.957031 188.230469 92.953125 C 188.183594 92.945312 188.136719 92.941406 188.089844 92.933594 C 188.039062 92.929688 187.992188 92.925781 187.941406 92.925781 C 187.894531 92.921875 187.84375 92.917969 187.796875 92.914062 C 187.746094 92.914062 187.699219 92.914062 187.648438 92.910156 C 187.589844 92.90625 187.539062 92.90625 187.488281 92.90625 C 184.300781 92.90625 181.695312 95.515625 181.695312 98.699219 L 181.695312 114.835938 C 181.304688 117.617188 178.898438 119.777344 176.011719 119.777344 C 172.859375 119.777344 170.273438 117.195312 170.273438 114.039062 L 170.273438 108.175781 C 170.273438 105.023438 167.691406 102.441406 164.535156 102.441406 C 161.378906 102.441406 158.796875 105.023438 158.796875 108.175781 L 158.796875 139.335938 C 158.265625 141.984375 155.914062 143.996094 153.117188 143.996094 C 149.929688 143.996094 147.320312 141.386719 147.320312 138.203125 L 147.320312 120.144531 C 147.320312 116.960938 144.714844 114.351562 141.527344 114.351562 C 138.339844 114.351562 135.734375 116.960938 135.734375 120.144531 L 135.734375 126.765625 C 135.695312 129.921875 133.105469 132.488281 129.941406 132.488281 C 126.824219 132.488281 124.257812 129.988281 124.148438 126.894531 L 124.148438 127.902344 C 124.148438 124.714844 121.539062 122.109375 118.351562 122.109375 C 115.167969 122.109375 112.558594 124.714844 112.558594 127.902344 L 112.558594 145.390625 C 112.558594 148.578125 115.167969 151.183594 118.351562 151.183594 C 121.539062 151.183594 124.148438 148.578125 124.148438 145.390625 L 124.148438 144.15625 C 124.148438 140.96875 126.753906 138.363281 129.941406 138.363281 C 133.105469 138.363281 135.695312 140.933594 135.734375 144.085938 L 135.734375 153.722656 C 135.734375 156.910156 138.339844 159.515625 141.527344 159.515625 C 144.714844 159.515625 147.320312 156.910156 147.320312 153.722656 L 147.320312 155.664062 C 147.320312 152.476562 149.929688 149.871094 153.117188 149.871094 C 155.914062 149.871094 158.265625 151.882812 158.796875 154.53125 L 158.796875 165.6875 C 158.800781 168.847656 161.382812 171.425781 164.535156 171.425781 Z M 164.535156 171.425781 " fill-opacity="1" fill-rule="evenodd"/></g><g fill="#2430cf" fill-opacity="1"><g transform="translate(96.717331, 219.692184)"><g><path d="M 16.90625 -15.25 C 16.601562 -16.3125 16.046875 -17.140625 15.234375 -17.734375 C 14.429688 -18.335938 13.414062 -18.640625 12.1875 -18.640625 C 10.457031 -18.640625 9.054688 -18 7.984375 -16.71875 C 6.921875 -15.445312 6.390625 -13.640625 6.390625 -11.296875 C 6.390625 -8.941406 6.914062 -7.117188 7.96875 -5.828125 C 9.019531 -4.546875 10.441406 -3.90625 12.234375 -3.90625 C 13.816406 -3.90625 15.0625 -4.316406 15.96875 -5.140625 C 16.875 -5.972656 17.34375 -7.082031 17.375 -8.46875 L 12.53125 -8.46875 L 12.53125 -12.0625 L 21.96875 -12.0625 L 21.96875 -9.21875 C 21.96875 -7.25 21.546875 -5.550781 20.703125 -4.125 C 19.867188 -2.695312 18.71875 -1.597656 17.25 -0.828125 C 15.789062 -0.0664062 14.109375 0.3125 12.203125 0.3125 C 10.085938 0.3125 8.226562 -0.15625 6.625 -1.09375 C 5.03125 -2.03125 3.785156 -3.363281 2.890625 -5.09375 C 2.003906 -6.820312 1.5625 -8.875 1.5625 -11.25 C 1.5625 -13.6875 2.023438 -15.769531 2.953125 -17.5 C 3.890625 -19.226562 5.15625 -20.550781 6.75 -21.46875 C 8.34375 -22.394531 10.128906 -22.859375 12.109375 -22.859375 C 13.804688 -22.859375 15.34375 -22.535156 16.71875 -21.890625 C 18.101562 -21.242188 19.234375 -20.347656 20.109375 -19.203125 C 20.992188 -18.066406 21.539062 -16.75 21.75 -15.25 Z M 16.90625 -15.25 "/></g></g></g><g fill="#050a30" fill-opacity="1"><g transform="translate(126.471236, 219.692184)"><g><path d="M 9.25 0.359375 C 7.71875 0.359375 6.378906 -0.00390625 5.234375 -0.734375 C 4.085938 -1.460938 3.191406 -2.476562 2.546875 -3.78125 C 1.898438 -5.09375 1.578125 -6.617188 1.578125 -8.359375 C 1.578125 -10.128906 1.898438 -11.671875 2.546875 -12.984375 C 3.191406 -14.296875 4.085938 -15.3125 5.234375 -16.03125 C 6.378906 -16.757812 7.71875 -17.125 9.25 -17.125 C 10.769531 -17.125 12.101562 -16.757812 13.25 -16.03125 C 14.40625 -15.3125 15.300781 -14.296875 15.9375 -12.984375 C 16.582031 -11.671875 16.90625 -10.128906 16.90625 -8.359375 C 16.90625 -6.617188 16.582031 -5.09375 15.9375 -3.78125 C 15.300781 -2.476562 14.40625 -1.460938 13.25 -0.734375 C 12.101562 -0.00390625 10.769531 0.359375 9.25 0.359375 Z M 9.25 -1.984375 C 10.40625 -1.984375 11.359375 -2.28125 12.109375 -2.875 C 12.859375 -3.46875 13.410156 -4.25 13.765625 -5.21875 C 14.128906 -6.1875 14.3125 -7.234375 14.3125 -8.359375 C 14.3125 -9.492188 14.128906 -10.546875 13.765625 -11.515625 C 13.410156 -12.492188 12.859375 -13.285156 12.109375 -13.890625 C 11.359375 -14.492188 10.40625 -14.796875 9.25 -14.796875 C 8.082031 -14.796875 7.125 -14.492188 6.375 -13.890625 C 5.632812 -13.285156 5.082031 -12.492188 4.71875 -11.515625 C 4.363281 -10.546875 4.1875 -9.492188 4.1875 -8.359375 C 4.1875 -7.234375 4.363281 -6.1875 4.71875 -5.21875 C 5.082031 -4.25 5.632812 -3.46875 6.375 -2.875 C 7.125 -2.28125 8.082031 -1.984375 9.25 -1.984375 Z M 9.25 -1.984375 "/></g></g></g><g fill="#050a30" fill-opacity="1"><g transform="translate(151.132154, 219.692184)"><g><path d="M 2.375 0 L 2.375 -16.90625 L 4.890625 -16.90625 L 4.890625 -14.359375 L 5.0625 -14.359375 C 5.363281 -15.191406 5.914062 -15.867188 6.71875 -16.390625 C 7.53125 -16.910156 8.445312 -17.171875 9.46875 -17.171875 C 9.9375 -17.171875 10.347656 -17.113281 10.703125 -17 C 11.054688 -16.894531 11.363281 -16.75 11.625 -16.5625 L 10.75 -14.359375 C 10.5625 -14.453125 10.34375 -14.523438 10.09375 -14.578125 C 9.851562 -14.628906 9.570312 -14.65625 9.25 -14.65625 C 8.007812 -14.65625 6.984375 -14.28125 6.171875 -13.53125 C 5.367188 -12.78125 4.96875 -11.835938 4.96875 -10.703125 L 4.96875 0 Z M 2.375 0 "/></g></g></g><g fill="#2430cf" fill-opacity="1"><g transform="translate(169.197799, 219.692184)"><g><path d="M 6.03125 -22.546875 L 11.484375 -5.421875 L 11.6875 -5.421875 L 17.15625 -22.546875 L 22.4375 -22.546875 L 14.65625 0 L 8.515625 0 L 0.734375 -22.546875 Z M 6.03125 -22.546875 "/></g></g></g><g fill="#050a30" fill-opacity="1"><g transform="translate(198.553262, 219.692184)"><g><path d="M 9.25 0.359375 C 7.71875 0.359375 6.378906 -0.00390625 5.234375 -0.734375 C 4.085938 -1.460938 3.191406 -2.476562 2.546875 -3.78125 C 1.898438 -5.09375 1.578125 -6.617188 1.578125 -8.359375 C 1.578125 -10.128906 1.898438 -11.671875 2.546875 -12.984375 C 3.191406 -14.296875 4.085938 -15.3125 5.234375 -16.03125 C 6.378906 -16.757812 7.71875 -17.125 9.25 -17.125 C 10.769531 -17.125 12.101562 -16.757812 13.25 -16.03125 C 14.40625 -15.3125 15.300781 -14.296875 15.9375 -12.984375 C 16.582031 -11.671875 16.90625 -10.128906 16.90625 -8.359375 C 16.90625 -6.617188 16.582031 -5.09375 15.9375 -3.78125 C 15.300781 -2.476562 14.40625 -1.460938 13.25 -0.734375 C 12.101562 -0.00390625 10.769531 0.359375 9.25 0.359375 Z M 9.25 -1.984375 C 10.40625 -1.984375 11.359375 -2.28125 12.109375 -2.875 C 12.859375 -3.46875 13.410156 -4.25 13.765625 -5.21875 C 14.128906 -6.1875 14.3125 -7.234375 14.3125 -8.359375 C 14.3125 -9.492188 14.128906 -10.546875 13.765625 -11.515625 C 13.410156 -12.492188 12.859375 -13.285156 12.109375 -13.890625 C 11.359375 -14.492188 10.40625 -14.796875 9.25 -14.796875 C 8.082031 -14.796875 7.125 -14.492188 6.375 -13.890625 C 5.632812 -13.285156 5.082031 -12.492188 4.71875 -11.515625 C 4.363281 -10.546875 4.1875 -9.492188 4.1875 -8.359375 C 4.1875 -7.234375 4.363281 -6.1875 4.71875 -5.21875 C 5.082031 -4.25 5.632812 -3.46875 6.375 -2.875 C 7.125 -2.28125 8.082031 -1.984375 9.25 -1.984375 Z M 9.25 -1.984375 "/></g></g></g><g fill="#050a30" fill-opacity="1"><g transform="translate(223.21418, 219.692184)"><g><path d="M 2.375 0 L 2.375 -16.90625 L 4.96875 -16.90625 L 4.96875 0 Z M 3.703125 -19.734375 C 3.191406 -19.734375 2.753906 -19.90625 2.390625 -20.25 C 2.023438 -20.59375 1.84375 -21.003906 1.84375 -21.484375 C 1.84375 -21.972656 2.023438 -22.390625 2.390625 -22.734375 C 2.753906 -23.078125 3.191406 -23.25 3.703125 -23.25 C 4.203125 -23.25 4.632812 -23.078125 5 -22.734375 C 5.363281 -22.390625 5.546875 -21.972656 5.546875 -21.484375 C 5.546875 -21.003906 5.363281 -20.59375 5 -20.25 C 4.632812 -19.90625 4.203125 -19.734375 3.703125 -19.734375 Z M 3.703125 -19.734375 "/></g></g></g><g fill="#050a30" fill-opacity="1"><g transform="translate(236.735946, 219.692184)"><g><path d="M 9.25 0.359375 C 7.664062 0.359375 6.300781 -0.015625 5.15625 -0.765625 C 4.007812 -1.515625 3.125 -2.546875 2.5 -3.859375 C 1.882812 -5.171875 1.578125 -6.671875 1.578125 -8.359375 C 1.578125 -10.078125 1.894531 -11.59375 2.53125 -12.90625 C 3.164062 -14.226562 4.050781 -15.257812 5.1875 -16 C 6.332031 -16.75 7.671875 -17.125 9.203125 -17.125 C 10.390625 -17.125 11.457031 -16.90625 12.40625 -16.46875 C 13.363281 -16.03125 14.144531 -15.414062 14.75 -14.625 C 15.363281 -13.832031 15.742188 -12.90625 15.890625 -11.84375 L 13.296875 -11.84375 C 13.097656 -12.613281 12.660156 -13.296875 11.984375 -13.890625 C 11.304688 -14.492188 10.394531 -14.796875 9.25 -14.796875 C 7.726562 -14.796875 6.503906 -14.21875 5.578125 -13.0625 C 4.648438 -11.90625 4.1875 -10.367188 4.1875 -8.453125 C 4.1875 -6.492188 4.644531 -4.925781 5.5625 -3.75 C 6.476562 -2.570312 7.707031 -1.984375 9.25 -1.984375 C 10.257812 -1.984375 11.125 -2.242188 11.84375 -2.765625 C 12.570312 -3.285156 13.054688 -4.007812 13.296875 -4.9375 L 15.890625 -4.9375 C 15.742188 -3.9375 15.382812 -3.035156 14.8125 -2.234375 C 14.238281 -1.441406 13.476562 -0.8125 12.53125 -0.34375 C 11.59375 0.125 10.5 0.359375 9.25 0.359375 Z M 9.25 0.359375 "/></g></g></g><g fill="#050a30" fill-opacity="1"><g transform="translate(260.208097, 219.692184)"><g><path d="M 9.46875 0.359375 C 7.832031 0.359375 6.425781 0 5.25 -0.71875 C 4.070312 -1.445312 3.164062 -2.460938 2.53125 -3.765625 C 1.894531 -5.066406 1.578125 -6.585938 1.578125 -8.328125 C 1.578125 -10.054688 1.894531 -11.582031 2.53125 -12.90625 C 3.164062 -14.226562 4.050781 -15.257812 5.1875 -16 C 6.332031 -16.75 7.671875 -17.125 9.203125 -17.125 C 10.085938 -17.125 10.957031 -16.976562 11.8125 -16.6875 C 12.664062 -16.394531 13.445312 -15.921875 14.15625 -15.265625 C 14.863281 -14.609375 15.425781 -13.738281 15.84375 -12.65625 C 16.257812 -11.582031 16.46875 -10.253906 16.46875 -8.671875 L 16.46875 -7.578125 L 4.1875 -7.578125 C 4.25 -5.765625 4.757812 -4.378906 5.71875 -3.421875 C 6.6875 -2.460938 7.9375 -1.984375 9.46875 -1.984375 C 10.488281 -1.984375 11.363281 -2.203125 12.09375 -2.640625 C 12.832031 -3.078125 13.363281 -3.738281 13.6875 -4.625 L 16.203125 -3.921875 C 15.804688 -2.640625 15.015625 -1.601562 13.828125 -0.8125 C 12.640625 -0.03125 11.1875 0.359375 9.46875 0.359375 Z M 4.1875 -9.8125 L 13.828125 -9.8125 C 13.828125 -11.25 13.40625 -12.4375 12.5625 -13.375 C 11.726562 -14.320312 10.609375 -14.796875 9.203125 -14.796875 C 8.210938 -14.796875 7.351562 -14.5625 6.625 -14.09375 C 5.894531 -13.632812 5.320312 -13.023438 4.90625 -12.265625 C 4.488281 -11.503906 4.25 -10.6875 4.1875 -9.8125 Z M 4.1875 -9.8125 "/></g></g></g></svg>